<svg xmlns:svg="http://www.w3.org/2000/svg" xmlns="http://www.w3.org/2000/svg" id="svg2" version="1.1" xml:space="preserve" width="628.44" height="150" viewBox="0 0 628.44 150"><metadata id="metadata8"/><defs id="defs6"/><path d="m71.60512 37.445789-19.01734 0c-1.73226 0-3.130661-1.38-3.180261-3.09867-0.003-0.0293-0.0104-0.0627-0.0104-0.0907l0-18.95333c0-1.76267-1.42707-3.19067-3.19-3.19067l-14.86774 0c-1.76306 0-3.19173 1.428-3.19173 3.19067l0 18.948c0 1.76267-1.42813 3.192-3.19107 3.192l-18.984396 0c-0.07187 0.001-0.135466 0.016-0.205733 0.0213l0.2292 0c-1.7412 0.024-3.148533 1.436-3.151066 3.18l0 14.88267c0-0.003 0-0.005 0-0.007l0-14.868c0-0.003 0-0.005 0-0.008l0-0.25333c-0.0052 0.0773-0.02347 0.152-0.02347 0.23067l0 14.88133c0.0052 1.76133 1.429733 3.18533 3.1912 3.18533l18.941602 0c1.76146 0 3.18746 1.42667 3.18746 3.19067l0.006 18.94533c0 1.76267 1.42867 3.192 3.19173 3.192l14.86774 0c1.76293 0 3.19-1.42933 3.19-3.192l-0.0104-18.948c0-1.76266 1.429734-3.19066 3.190404-3.19066l18.97865 0c1.71867-0.012 3.10667-1.38534 3.156-3.09734l0-15.05066c-0.0467-1.696-1.41066-3.052-3.10666-3.092" id="path16" style="fill-opacity:1;fill-rule:nonzero;fill:#fff"/><path d="m610.41577 16.488449 0 10.27734 10.83067 0 0.348 0c1.80533 0.068 3.264 1.80533 3.264 3.67866 0 0 0 0 0 0.0693 0 1.80533-1.32 3.404-3.05467 3.68133l-11.388 0 0 23.884c0.0693 5.208 0.208 8.33333 0.416 9.51333 0.13867 1.18 0.69333 2.36 1.66667 3.47067 1.04133 1.38933 2.708 2.292 4.86 2.91733 1.32 0.34667 2.98666 0.55467 5.06933 0.69334 1.388 0.48666 2.43067 1.944 2.43067 3.54266l0 0.41467c0 1.87467-1.388 3.54133-3.12534 3.75067-3.888-0.20934-7.01333-0.69467-9.51333-1.388-3.33067-0.97334-5.83333-2.57067-7.42933-4.72134-1.18-1.66666-2.01334-3.54266-2.42934-5.62533-0.41733-2.152-0.62533-5.34667-0.62533-9.72133l0-26.73067-10.484 0c-1.73733-0.27733-2.98533-1.876-2.98533-3.68133 0-0.0693 0-0.0693 0-0.0693 0-1.87333 1.388-3.61066 3.19333-3.67866l0.34933 0 9.92667 0 0-9.99867c-0.068-1.944 1.66667-3.61067 3.74933-3.61067l1.18 0c1.94534 0 3.68 1.45734 3.75067 3.332l0 0M454.81444 82.381789l0-7.63867M454.81444 82.381789l0-7.63867M454.81444 82.381789l0-7.63867c1.18133 0.0707 2.5 0.0707 3.82 0.0707 6.24667 0 10.83067-0.348 13.74667-0.904 2.84666-0.55467 5-1.596 6.456-3.192 0.55733-0.556 0.97466-1.38934 1.25066-2.5 0.0693-0.0707 0.14-0.14 0.14-0.20934 0.62534-1.66666 2.22134-3.124 4.23467-3.124l1.39067 0c2.01333 0 3.81733 1.596 3.67733 3.54134l0 0.48533c-0.90133 4.444-3.05467 7.63867-6.52667 9.652-4.44266 2.568-12.28933 3.888-23.39866 3.888-1.66667 0-3.26267 0-4.79067-0.0693l0 0M454.81444 56.204449l0-7.49733 23.676 0.0693c1.04267 0 1.876-0.83333 1.876-1.876l0-0.13866 0.0693 0c0-5.34667-1.45733-7.08267-4.236-9.23467-1.876-1.388-4.44266-2.42933-7.84666-2.98533-3.12267-0.48667-7.636-0.764-13.53867-0.83334l0-7.63733c9.02533 0 15.55467 0.484 19.65067 1.52667 4.16666 0.97333 7.568 2.916 10.068 5.76266 2.08266 2.43067 3.54133 5.208 4.304 8.33334 0.62533 2.63866 1.04133 6.45733 1.18 11.38666-0.208 1.528-1.52934 2.77734-3.12534 3.056l-16.24666 0.068-15.83067 0 0 0M524.9411 67.245789c0.14134 1.388 0.41734 2.49866 0.83334 3.26266 0.62533 1.25067 1.87466 2.22134 3.75066 2.98534 2.568 0.83333 9.78934 1.32 21.732 1.32 7.432 0 12.63734-0.208 15.55467-0.48667 2.916-0.34667 5-0.972 6.24933-1.944 1.73467-1.32 2.63867-3.332 2.63867-6.11067 0-3.332-1.04267-5.55333-3.12533-6.804-2.084-1.18133-5.90134-1.80533-11.456-1.736-1.73734 0-10.068-0.0693-25.068-0.34666-3.888-0.0693-7.01067-0.348-9.372-0.90267-2.36267-0.556-4.23467-1.388-5.83334-2.63867-2.91733-2.29066-4.37199-6.11066-4.37199-11.52533 0-5.69467 1.80399-9.86 5.48399-12.43067 1.94534-1.388 5.13734-2.35866 9.51334-2.984 4.372-0.556 10.76-0.83333 19.02266-0.83333 9.23734 0 16.04 0.484 20.41467 1.45867 4.37467 1.04133 7.63733 2.776 9.65067 5.34666 0.972 1.248 1.66666 2.568 1.94533 3.95734 0.208 0.832 0.276 2.152 0.34667 3.81866-0.27867 1.736-1.94267 2.98534-3.81734 2.98534l-1.808 0c-1.596 0-2.984-0.90267-3.60933-2.22267-0.208-2.08267-0.69467-3.47067-1.528-4.304-1.18-1.18-3.472-2.084-6.94267-2.56933-3.472-0.556-8.40133-0.83334-14.93066-0.83334-11.94 0-19.16134 0.83334-21.66134 2.5-1.87466 1.18-2.84666 3.33334-2.84666 6.248 0 2.98667 1.112 5 3.264 5.972 2.15333 0.97067 6.52533 1.388 13.12266 1.24934 6.45734-0.068 14.85867 0.0707 25.20534 0.48666 6.24666 0.20934 10.76 1.59734 13.53866 4.09734 2.776 2.5 4.164 6.52533 4.164 11.94266 0 3.332-0.484 5.97067-1.456 7.984-0.97333 2.084-2.56933 3.75067-4.724 5.068-1.872 1.18134-4.99733 2.01467-9.23066 2.43067-4.30534 0.556-10.55467 0.764-18.68 0.764-9.02667 0-15.76134-0.27867-20.136-0.83333-4.44267-0.48667-7.63734-1.45734-9.72134-2.916-2.01333-1.388-3.53866-3.05467-4.37199-5-0.48667-1.18-0.83334-2.63867-1.04134-4.37334l0-0.90266c-0.14133-2.01334 1.73334-3.68 3.888-3.68l1.73333 0c1.6 0 3.12534 1.04133 3.68 2.5l0 0M501.68377 26.833789l2.70534 0c1.59866 0 2.91733 1.32133 2.91733 2.98666l0 48.88134c0 1.66666-1.31867 2.98533-2.91733 2.98533l-2.70534 0c-1.59866 0-2.98666-1.31867-2.98666-2.98533l0-48.88134c0-1.66533 1.388-2.98666 2.98666-2.98666l0 0M501.68377 2.532449l2.70534 0c1.59866 0 2.91733 1.38934 2.91733 2.98534l0 4.72266c0 1.66534-1.31867 2.984-2.91733 2.984l-2.70534 0c-1.59866 0-2.98666-1.31866-2.98666-2.984l0-4.72266c0-1.596 1.388-2.98534 2.98666-2.98534M454.81444 26.071119l0 7.63733c-0.41733 0-0.764 0-1.10933 0-5.696 0-9.93067 0.27734-12.91467 0.83334-2.98667 0.48533-5.27867 1.38933-6.94533 2.708-2.708 2.152-4.30534 3.95733-4.72134 9.512l0.0707 0c0 1.04133 0.9 1.87466 1.94267 1.87466l23.67733 0.0707 0 7.49733-20.55333 0 0 0.0707-3.4 0c-1.112 0-1.94534 0.90267-1.94534 1.944l0.14 0.83333c-0.0707 0.068-0.0707 0.13867-0.0707 0.208 0.48533 5.20667 1.80533 8.88667 3.888 11.04 1.66666 1.73467 4.30533 2.91734 7.98533 3.54 3.05467 0.556 7.708 0.83334 13.956 0.90267l0 7.63867c-6.87333-0.0707-12.28933-0.41734-16.17733-0.972-4.792-0.764-8.33334-1.94534-10.764-3.68134-5.62134-3.888-8.4-11.664-8.4-23.32933 0-8.12267 1.17866-14.30267 3.54133-18.33067 2.22133-3.95733 5.484-6.596 9.72133-7.91333 4.23467-1.38933 11.31467-2.084 21.17734-2.084 0.276 0 0.55466 0 0.90133 0l0 0M375.31444 102.23912l0-7.636c6.94267-0.0707 12.08-0.41733 15.41333-1.04267 3.75067-0.69466 6.388-2.013331 7.91734-3.957331 1.17866-1.52933 1.94266-3.33333 2.42933-5.48667 0.416-2.08133 0.692-5.9 0.90133-11.524l-0.55466 0c-2.43067 2.984-5.27867 4.92934-8.54267 5.83067-3.192 0.83333-9.02533 1.24933-17.564 1.32l0-7.708c10.83067 0 17.77333-0.90133 20.76-2.776 2.15067-1.388 3.68-3.40267 4.58-6.04133 0.904-2.63867 1.39067-6.388 1.39067-11.17867 0-4.58267-0.48667-8.124-1.59867-10.55333-1.04133-2.43067-2.776-4.236-5.276-5.41734-3.192-1.596-9.44267-2.36-18.81466-2.36-0.34934 0-0.696 0-1.04134 0l0-7.63733c0.34534 0 0.692 0 1.04134 0 5.968 0 10.34399 0.13867 13.05199 0.484 2.63734 0.34933 4.92934 1.04267 6.804 2.084 2.22134 1.24933 4.09734 3.056 5.41734 5.208l0.48666 0-0.0707-4.72133c0.48533-1.24934 1.80533-2.22134 3.33333-2.36l2.22133 0c1.52667 0.13866 2.776 1.17866 3.19334 2.49866l0 38.67467c0 8.67867-0.41734 15.20667-1.31734 19.65067-0.83333 4.16533-3.05466 7.568001-6.59733 10.205331-2.432 1.73733-5.624 2.84667-9.72133 3.472-3.888 0.624-9.85867 0.90267-17.84267 0.972M375.31444 26.071119l0 7.63733c-10.13866 0.0693-16.87333 0.972-20.276 2.708-4.30533 2.152-6.38933 7.70667-6.38933 16.59467 0 9.02667 2.36267 14.65067 7.22267 16.94133 2.916 1.38934 9.304 2.08267 19.372 2.08267 0 0 0 0 0.0707 0l0 7.708c-0.27866 0-0.488 0-0.76666 0-7.42667 0-13.12134-0.348-17.21867-1.04133-4.096-0.62534-7.15067-1.73734-9.304-3.33334-2.98533-2.22133-5.20667-5.13866-6.59733-8.748-1.388-3.612-2.08267-8.26266-2.08267-13.888 0-12.22 3.74933-20.06533 11.24933-23.67733 2.36-1.11067 5.48534-1.87467 9.23467-2.28933 3.60933-0.48667 8.748-0.69467 15.48533-0.69467l0 0M375.31444 94.60312l0 7.636c-0.55733 0-1.112 0-1.66666 0-9.16667 0-15.972-0.62533-20.41467-1.736-4.44267-1.17867-7.708-3.26267-9.92933-6.17867-1.04267-1.388-1.66667-2.709331-2.01334-4.097331-0.208-0.69467-0.34666-1.596-0.41733-2.708 0.20933-1.736 1.94533-3.05467 3.888-3.05467l1.388 0c1.52933 0 3.12533 0.83334 3.89067 2.084 0.068 0.55467 0.20933 0.97067 0.34666 1.45734l0 0.068c0.13867 0.34933 0.27867 0.764 0.48534 1.04133 0.556 1.112 1.59866 2.084 2.916 2.848 3.05466 1.736001 9.44266 2.640001 18.88533 2.640001 0.904 0 1.808 0 2.64133 0M117.50645 66.551119c0.48666 1.04133 1.18 1.804 2.63866 2.29067 2.42934 0.90266 6.94267 1.32 13.54 1.32 6.804 0 11.38667-0.348 13.88534-1.11067 2.43066-0.696 3.68133-2.084 3.68133-4.09733 0-1.94534-1.18133-3.19334-3.54133-3.888-1.112-0.27867-7.08267-0.48667-17.91467-0.624-10.13733 0-16.316-0.20934-18.67733-0.556-6.596-0.83334-11.04-2.98667-13.33067-6.388-1.80533-2.56934-2.63866-6.04134-2.63866-10.34534 0-8.264 3.05466-13.68 9.16533-16.17866 4.58267-1.87467 14.44266-2.848 29.57866-2.848 9.58134 0 16.52534 0.348 20.82934 1.112 4.30533 0.69466 7.708 2.08266 10.068 4.096 1.528 1.18 2.56933 2.70933 3.19333 4.444 0.41733 1.11066 0.69467 2.5 0.972 4.236l0 0c0.0707 1.66533-1.11067 3.05466-2.70667 3.472l-16.87333 0c-1.11067-0.27867-2.01333-0.97334-2.42933-1.87467 0-0.20933-0.0693-0.34667-0.208-0.556l0 0c-0.0693-0.14-0.14-0.208-0.208-0.27733-1.736-1.04267-6.18-1.59734-13.26267-1.59734-6.52667 0-11.04 0.34667-13.46933 0.972-2.43067 0.69467-3.68 1.87467-3.68 3.61067 0 2.29067 1.66666 3.54 5.068 3.748 2.63866 0.20933 12.15066 0.348 28.60666 0.488 7.916 0 13.60934 1.388 17.08 3.95733 3.54134 2.63867 5.34667 7.152 5.34667 13.54 0 4.23334-0.69467 7.70667-2.08267 10.344-1.388 2.64-3.54133 4.65334-6.52666 5.972-4.93067 2.22267-15.41467 3.40267-31.45334 3.40267-10.20666 0-17.56666-0.41733-22.01066-1.18-4.444-0.83333-7.91467-2.36267-10.484-4.72133-2.01333-1.80667-3.40267-4.30667-4.236-7.42934l-0.0693-1.38933c-0.0693-1.944 1.66666-3.54133 3.74933-3.54133l14.99733 0c1.32 0 2.708 0.69466 3.40267 1.59733zm123.31333 0.90267 5.972 0c1.944 0 3.54133 1.59733 3.54133 3.60933l0 8.40133c0 1.94534-1.59733 3.888-3.54133 3.61067l-1.87467 0.14c-0.208 0-0.416 0-0.55466 0-6.736 0-11.73467-0.41733-14.99867-1.11067-3.26267-0.76533-5.90133-2.084-7.984-4.09866-1.528-1.456-2.56933-3.12267-3.264-4.85867-0.62533-1.736-1.04133-4.096-1.18-7.15067-0.0693-1.112-0.13867-4.16666-0.13867-9.028l0-16.316-7.568 0c-1.876 0-3.40266-1.52933-3.40266-3.40266l0-8.40267c0-1.87333 1.52666-3.40133 3.40266-3.40133l7.568 0 0 0c0-0.208-0.0693-0.416-0.0693-0.624l0-8.888c0-1.944 1.596-3.54267 3.54-3.54267l14.304 0c1.944 0 3.54133 1.59867 3.54133 3.54267l0 8.888c0 0.27733 0 0.48533-0.0707 0.76266l6.87466 0 0 0.0707 2.08267 0c1.87467 0 3.33333 1.45733 3.33333 3.332l0 8.26267c0 1.87333-1.45866 3.40266-3.33333 3.40266l-9.164 0 0 16.316c0 4.37467 0.27733 7.152 0.90133 8.26267 0.556 0.97333 1.11067 1.736 2.08267 2.22267l0 0zm-58.532-42.008 14.304 0c1.944 0 3.54 1.59733 3.54 3.54133l0 49.22933c0 1.944-1.596 3.54-3.54 3.54l-14.304 0c-1.944 0-3.54133-1.596-3.54133-3.54l0-49.22933c0-1.944 1.59733-3.54133 3.54133-3.54133l0 0zm112.20533-1.32 0 13.05466c-6.596 0.0693-11.04 0.69467-13.26267 1.87467-2.22133 1.25067-3.54 2.01333-3.68 5.972l0.20934 0c0.068 0.972 0.90133 1.73467 1.87466 1.80533l14.85867 0.068 0 11.31867-16.872 0c0 2.84667 0.13867 4.92933 0.55467 6.17867 0.348 1.18133 1.11066 2.22266 2.152 3.056 2.084 1.52666 6.80533 2.29066 14.16533 2.29066l0 13.47067c-0.556 0-1.112 0-1.66667 0-8.12266 0-14.372-0.41733-18.74666-1.18-4.37467-0.83333-7.84667-2.15333-10.416-4.096-2.63734-2.084-4.51334-4.792-5.55467-8.19467-0.97067-3.472-1.45867-8.67866-1.45867-15.83066 0-5.34667 0.14-9.30267 0.556-12.012 0.41734-2.708 1.11067-5.068 2.22134-7.29067 2.22133-4.444 6.25066-7.36 12.152-8.748 4.92933-1.112 12.568-1.66667 22.91333-1.73733l0 0zm-112.20533-21.52267 14.304 0c1.944 0 3.54 1.596 3.54 3.54l0 8.888c0 1.944-1.596 3.54-3.54 3.54l-14.304 0c-1.944 0-3.54133-1.596-3.54133-3.54l0-8.888c0-1.944 1.59733-3.54 3.54133-3.54l0 0zm112.20533 55.616 0-11.31867 14.928 0.0693c1.04133 0 1.87467-0.90267 1.87467-1.94267l0.13733 0c0-0.97333-0.0667-1.528-0.13733-1.80533l0-0.0693c0-0.348-0.0707-0.48666-0.208-0.97333-0.20934-0.83333-0.62534-1.52667-1.25067-2.22267-1.804-1.87333-6.66533-2.776-14.58-2.776-0.27733 0-0.48667 0-0.764 0l0-13.05466c0.13867 0 0.34667 0 0.48667 0 9.37333 0 15.96933 0.348 19.78666 1.04133 6.80534 1.112 11.456 3.68 14.02667 7.56933 2.568 3.95734 3.81733 10.55334 3.81733 19.788 0 0.62534 0 1.66667-0.068 3.12534-0.416 1.45866-1.94533 2.5-3.54133 2.5l-5.34667 0.0693-29.16133 0zm0 24.996 0-13.47067c4.652 0 6.45733-0.208 8.81867-0.556 2.29066-0.34666 3.888-0.97066 4.72133-1.804 0.208-0.20933 0.34533-0.348 0.484-0.62533 0 0.0707 0.0707 0.0707 0.0707 0.13733 0.83333-1.10933 2.15333-2.08133 3.60933-2.28933l15.76267 0c1.87466 0.208 3.47066 1.73467 3.33333 3.61067l0 0.624c-0.97467 3.54133-2.5 6.24933-4.72133 8.12266-2.708 2.36267-6.52934 3.95867-11.45867 4.86267-4.65067 0.9-11.524 1.31867-20.62 1.388l0 0" id="path18" style="fill-opacity:1;fill-rule:evenodd;fill:#fff"/><path d="m109.31445 119.98978c-4.26533 0-6.692 3.224-6.692 8.94534 0 5.75333 2.56533 8.97866 6.864 8.97866 4.23067 0 6.692-3.19066 6.692-8.97866 0-5.72134-2.56533-8.94534-6.864-8.94534zm0 22.04934c-7.45467 0-12.412-4.74934-12.412-13.104 0-8.356 5.132-13.14 12.584-13.14 7.45467 0 12.412 4.74933 12.412 13.14 0 8.45733-5.096 13.104-12.584 13.104M130.01045 141.76178l-4.82 0 0-15.32266M130.01045 141.76178l-4.82 0 0-15.32266M130.01045 141.76178l-4.82 0 0-15.32266c0-1.664 0.832-2.532 2.428-2.98267 2.63466-0.728 4.50533-0.90133 6.16933-0.90133 5.548 0 7.732 2.84266 7.732 6.83066l0 12.376-4.74933 0 0-11.96c0-1.76933-0.76267-3.156-3.22534-3.156-0.832 0-1.69866 0.0707-3.53466 0.55467l0 14.56133M145.33178 141.76178l0-25.932 4.888-0.90133 0 26.83333-4.888 0M154.17178 141.76178l0-19.03333 4.71467 0 0 19.03333-4.71467 0zm2.35733-21.49466c-1.73333 0-2.73866-1.00534-2.73866-2.6 0-1.56 1.00533-2.56534 2.73866-2.56534 1.73334 0 2.73867 1.00534 2.73867 2.56534 0 1.59466-1.00533 2.6-2.73867 2.6M167.62245 141.76178l-4.81867 0 0-15.32266c0-1.664 0.832-2.532 2.42667-2.98267 2.63466-0.728 4.50666-0.90133 6.17066-0.90133 5.54667 0 7.73067 2.84266 7.73067 6.83066l0 12.376-4.74933 0 0-11.96c0-1.76933-0.76267-3.156-3.224-3.156-0.832 0-1.69867 0.0707-3.536 0.55467l0 14.56133M191.19578 125.95245c-2.496 0-4.02133 1.76933-4.19467 4.61067l8.38934 0c0-2.53067-1.248-4.61067-4.19467-4.61067zm0.13867-3.46667c5.26933 0 8.70266 2.98134 8.70266 9.32534 0 1.35333-0.62533 2.012-2.012 2.012l-10.98933 0c0.24267 2.94666 2.25333 4.29733 5.13067 4.29733 1.56 0 3.12-0.24133 5.16533-0.86533l1.83733-0.58934 0.624 3.60534-1.83733 0.58933c-2.392 0.76267-4.12533 1.10933-6.136 1.10933-5.68533 0-9.464-3.224-9.464-9.672 0-6.796 4.16-9.812 8.97867-9.812M205.30511 142.10845c-1.73333 0-2.77333-1.04-2.77333-2.704 0-1.62933 1.04-2.66933 2.77333-2.66933 1.69867 0 2.73867 1.04 2.73867 2.66933 0 1.664-1.04 2.704-2.73867 2.704M247.32111 141.76178l-5.06133 0 0-18.79066-5.58267 16.91733c-0.38133 1.388-1.352 2.04667-3.016 2.04667-1.664 0-2.66933-0.69334-3.12-2.04667l-5.47733-16.952 0 18.82533-4.888 0 0-22.43066c0-2.392 1.69867-3.57067 4.22933-3.57067 2.87734 0 4.09067 1.42133 4.71467 3.36267l4.64533 14.804 4.85467-14.804c0.624-1.94134 1.69733-3.36267 4.576-3.36267 2.53067 0 4.12533 1.17867 4.12533 3.57067l0 22.43066M262.85044 133.78712l-4.05466 0c-2.18534 0-3.50267 0.69466-3.50267 2.496 0 1.52666 1.076 2.25466 2.87733 2.25466 0.79734 0 1.97734-0.14 3.224-0.48533l1.456-0.38267 0-3.88266zm4.85467 8.42533-1.66533-0.936c-0.86667-0.48667-1.768-0.52-2.77334-0.27733l-1.14266 0.27733c-1.56 0.38133-3.50267 0.69333-4.85467 0.69333-4.16 0-6.656-2.04533-6.656-5.51333 0-4.956 4.22933-5.928 9.01333-5.928l3.18934 0 0-1.28133c0-2.116-1.35067-2.844-3.36134-2.844-1.52666 0-3.60666 0.38133-5.65066 1.00533l-1.908 0.59067-0.624-3.74534 1.768-0.55466c2.428-0.76267 4.716-1.17867 6.89866-1.17867 4.26534 0 7.42 1.768 7.42 6.552l0 8.73733 2.11467 1.28267-1.768 3.12M282.74911 126.54178c-2.39067 0-4.29867 0.17467-6.06667 0.65867l0 14.56133-4.71466 0 0-15.25466c0-1.69867 0.832-2.564 2.42666-3.016 2.496-0.69334 4.64534-0.90134 8.35467-0.90134l0 3.952M297.20511 141.76178l-4.056-8.66666-1.52533 1.664c-1.04 1.14266-1.872 2.044-1.83867 4.09066l0 2.912-4.71333 0 0-25.96666 4.71333-0.86667 0 15.948 6.93467-8.148 5.756 0-5.61734 6.448 5.78934 12.58533-5.44267 0M312.45978 125.95245c-2.49734 0-4.02267 1.76933-4.196 4.61067l8.38933 0c0-2.53067-1.248-4.61067-4.19333-4.61067zm0.13733-3.46667c5.27067 0 8.70267 2.98134 8.70267 9.32534 0 1.35333-0.624 2.012-2.012 2.012l-10.98934 0c0.24267 2.94666 2.25334 4.29733 5.13067 4.29733 1.56 0 3.12-0.24133 5.16533-0.86533l1.83734-0.58934 0.624 3.60534-1.83734 0.58933c-2.392 0.76267-4.12533 1.10933-6.136 1.10933-5.68533 0-9.464-3.224-9.464-9.672 0-6.796 4.16-9.812 8.97867-9.812M336.58778 141.24178c-1.83867 0.484-3.26134 0.728-4.64667 0.728-4.368 0-6.41333-2.392-6.41333-7.03733l0-8.356-2.66934 0 0-3.67467 2.66934 0 0-4.056 4.67866-0.86666 0 4.92266 5.79067 0 0 3.67467-5.79067 0 0 8.70133c0 1.7 0.62534 2.91334 2.56534 2.91334 0.90266 0 2.012-0.244 3.22533-0.55467l0.59067 3.60533M339.39311 141.76178l0-19.03333 4.71467 0 0 19.03333-4.71467 0zm2.35867-21.49466c-1.73467 0-2.74-1.00534-2.74-2.6 0-1.56 1.00533-2.56534 2.74-2.56534 1.732 0 2.73733 1.00534 2.73733 2.56534 0 1.59466-1.00533 2.6-2.73733 2.6M352.84511 141.76178l-4.82 0 0-15.32266c0-1.664 0.83333-2.532 2.42667-2.98267 2.636-0.728 4.508-0.90133 6.172-0.90133 5.54666 0 7.73066 2.84266 7.73066 6.83066l0 12.376-4.74933 0 0-11.96c0-1.76933-0.76267-3.156-3.22533-3.156-0.832 0-1.69867 0.0707-3.53467 0.55467l0 14.56133M376.03711 126.05645c-2.392 0-3.988 0.79733-3.988 2.84267 0 2.15066 1.596 2.912 3.988 2.912 2.32267 0 4.02133-0.832 4.02133-2.912 0-2.04534-1.59466-2.84267-4.02133-2.84267zm3.46667 14.45733-6.796 0c-0.41467 0.45067-0.72667 1.17867-0.72667 2.01067 0 1.69733 1.80133 2.288 4.64533 2.288 3.63867 0 5.408-0.90133 5.408-2.63467 0-1.00666-0.76266-1.664-2.53066-1.664zm-10.46934-1.49066 1.59467-2.012c0.45067-0.588 0.624-1.07334 0.624-1.59334 0-0.76266-0.27733-1.24933-1.10933-1.83866-1.07467-0.79734-2.56667-2.07867-2.56667-4.68 0-4.16 3.328-6.06534 8.35467-6.06534l1.908 0c1.62933 0 2.73866-0.17466 3.46666-0.38266l4.47067-1.28267 0.868 3.50133-3.43333 0.97067c0 0 1.35333 1.00533 1.35333 3.25867 0 3.95333-3.15467 5.824-8.25067 5.824-1.04133 0-1.63066-0.13867-1.63066-0.13867 0.13866 0.17467 0.27866 0.58933 0.27866 1.076 0 0.588-0.208 1.10933-0.59066 1.56l5.444 0c4.40133 0 6.44799 1.872 6.44799 4.78267 0 3.77866-3.18933 5.964-9.81199 5.964-4.888 0-8.736-1.456-8.736-5.33867 0-1.59467 0.65866-2.77333 1.31866-3.60533M391.28911 142.10845c-1.73334 0-2.77334-1.04-2.77334-2.704 0-1.62933 1.04-2.66933 2.77334-2.66933 1.69866 0 2.74 1.04 2.74 2.66933 0 1.664-1.04134 2.704-2.74 2.704M415.62511 120.12845l-3.91867 0 0 8.18133 4.68133 0c2.46134 0 4.02134-1.49066 4.02134-4.08933 0-3.156-2.01067-4.092-4.784-4.092zm1.21333 12.376-5.132 0 0 9.25733-5.54667 0 0-22.74266c0-1.872 1.21334-3.05067 3.26-3.05067l7.76534 0c5.02666 0 8.35466 3.15467 8.35466 8.252 0 5.16533-3.432 8.284-8.70133 8.284M436.18111 125.95245c-2.496 0-4.02134 1.76933-4.19467 4.61067l8.38933 0c0-2.53067-1.24666-4.61067-4.19466-4.61067zm0.13866-3.46667c5.27067 0 8.70267 2.98134 8.70267 9.32534 0 1.35333-0.62533 2.012-2.01067 2.012l-10.99066 0c0.24266 2.94666 2.25333 4.29733 5.13066 4.29733 1.56 0 3.12-0.24133 5.16534-0.86533l1.83733-0.58934 0.624 3.60534-1.83733 0.58933c-2.392 0.76267-4.12534 1.10933-6.13467 1.10933-5.68667 0-9.46533-3.224-9.46533-9.672 0-6.796 4.16-9.812 8.97866-9.812M458.81844 126.54178c-2.392 0-4.29867 0.17467-6.06533 0.65867l0 14.56133-4.71467 0 0-15.25466c0-1.69867 0.832-2.564 2.42533-3.016 2.496-0.69334 4.64534-0.90134 8.35467-0.90134l0 3.952M473.03311 119.60845c-1.352-0.34667-2.428-0.55467-3.29334-0.55467-1.872 0-2.56666 0.76267-2.56666 2.808l0 1.04 5.51333 0 0 3.67467-5.51333 0 0 15.18533-4.68 0 0-15.18533-2.73734 0 0-3.67467 2.73734 0 0-1.42133c0-4.19467 2.428-6.24 6.484-6.24 1.35066 0 2.808 0.27733 4.64533 0.76267l-0.58933 3.60533M483.39844 126.09112c-2.94667 0-4.40267 2.21866-4.40267 6.172 0 4.056 1.59467 6.17066 4.50667 6.17066 2.912 0 4.43733-2.15066 4.43733-6.17066 0-3.98667-1.62933-6.172-4.54133-6.172zm0 15.87866c-5.75467 0-9.256-3.536-9.256-9.70666 0-6.24134 3.67333-9.74267 9.36-9.74267 5.72 0 9.25733 3.50133 9.25733 9.74267 0 6.20533-3.676 9.70666-9.36133 9.70666M506.72777 126.54178c-2.392 0-4.3 0.17467-6.06666 0.65867l0 14.56133-4.71467 0 0-15.25466c0-1.69867 0.832-2.564 2.42533-3.016 2.49734-0.69334 4.64667-0.90134 8.356-0.90134l0 3.952M513.79977 141.76178l-4.74933 0 0-15.32266c0-1.664 0.832-2.496 2.42667-2.98267 2.116-0.65867 3.952-0.90133 5.72-0.90133 2.25333 0 3.91733 0.48533 5.02666 1.42133 1.7-0.76267 3.81467-1.42133 6.03333-1.42133 5.02534 0 7.03734 2.66933 7.03734 6.65733l0 12.54933-4.71467 0 0-12.13466c0-1.69867-0.764-2.98134-2.844-2.98134-1.52533 0-2.56533 0.416-3.50133 0.76267 0.17333 0.452 0.348 1.10933 0.348 1.97733l0 12.376-4.71467 0 0-12.13466c0-1.76667-0.69467-2.98134-2.87866-2.98134-0.79734 0-1.664 0.0707-3.18934 0.55467l0 14.56133M550.75577 133.78712l-4.056 0c-2.18533 0-3.50267 0.69466-3.50267 2.496 0 1.52666 1.07467 2.25466 2.87734 2.25466 0.79733 0 1.976-0.14 3.224-0.48533l1.45733-0.38267 0-3.88266zm4.852 8.42533-1.664-0.936c-0.86667-0.48667-1.768-0.52-2.77333-0.27733l-1.14267 0.27733c-1.56133 0.38133-3.50267 0.69333-4.85467 0.69333-4.16 0-6.656-2.04533-6.656-5.51333 0-4.956 4.22934-5.928 9.01334-5.928l3.18933 0 0-1.28133c0-2.116-1.35067-2.844-3.36267-2.844-1.52533 0-3.60533 0.38133-5.65066 1.00533l-1.90667 0.59067-0.624-3.74534 1.768-0.55466c2.428-0.76267 4.71467-1.17867 6.89867-1.17867 4.264 0 7.41866 1.768 7.41866 6.552l0 8.73733 2.11467 1.28267-1.768 3.12M564.6891 141.76178l-4.81733 0 0-15.32266c0-1.664 0.832-2.532 2.42533-2.98267 2.63467-0.728 4.508-0.90133 6.172-0.90133 5.54667 0 7.73067 2.84266 7.73067 6.83066l0 12.376-4.75067 0 0-11.96c0-1.76933-0.76133-3.156-3.224-3.156-0.832 0-1.69733 0.0707-3.536 0.55467l0 14.56133M588.88777 137.98312c1.17867 0 2.704-0.38134 4.368-0.868l1.52533-0.44934 0.624 3.91734-1.59466 0.48533c-1.976 0.58933-3.77867 0.93467-5.44267 0.93467-5.304 0-8.944-3.15334-8.944-9.74 0-6.37867 3.64-9.74267 8.944-9.74267 1.664 0 3.46667 0.34667 5.44267 0.936l1.59466 0.48667-0.624 3.91733-1.52533-0.452c-1.664-0.48533-3.18933-0.86667-4.368-0.86667-3.016 0-4.576 1.83867-4.576 5.72134 0 3.848 1.56 5.72 4.576 5.72M606.4971 125.95245c-2.496 0-4.02 1.76933-4.19333 4.61067l8.38933 0c0-2.53067-1.24933-4.61067-4.196-4.61067zm0.14-3.46667c5.26934 0 8.70134 2.98134 8.70134 9.32534 0 1.35333-0.624 2.012-2.012 2.012l-10.98934 0c0.244 2.94666 2.25467 4.29733 5.132 4.29733 1.56 0 3.12-0.24133 5.16534-0.86533l1.83733-0.58934 0.62267 3.60534-1.836 0.58933c-2.392 0.76267-4.12534 1.10933-6.136 1.10933-5.68667 0-9.46534-3.224-9.46534-9.672 0-6.796 4.16-9.812 8.98-9.812M620.6051 142.10845c-1.73333 0-2.77333-1.04-2.77333-2.704 0-1.62933 1.04-2.66933 2.77333-2.66933 1.7 0 2.74 1.04 2.74 2.66933 0 1.664-1.04 2.704-2.74 2.704" id="path40" style="fill-opacity:1;fill-rule:nonzero;fill:#fff"/></svg>